HIERARCHY
ROOT SpineBase
{
  OFFSET 0.000000 0.000000 0.000000
  CHANNELS 6 Xposition Yposition Zposition Zrotation Xrotation Yrotation
  JOINT SpineMid
  {
    OFFSET -0.000000 28.821431 0.000000
    CHANNELS 3 Zrotation Xrotation Yrotation
    JOINT SpineShoulder
    {
      OFFSET -0.150566 21.369431 -0.785119
      CHANNELS 3 Zrotation Xrotation Yrotation
      JOINT Neck
      {
        OFFSET -0.120036 7.102623 -0.599961
        CHANNELS 3 Zrotation Xrotation Yrotation
        JOINT Head
        {
          OFFSET -4.293192 12.577463 3.667215
          CHANNELS 3 Zrotation Xrotation Yrotation
          End Site
          {
            OFFSET 0 0 0
          }
        }
      }
      JOINT ShoulderLeft
      {
        OFFSET -9.568440 -3.306356 11.835795
        CHANNELS 3 Zrotation Xrotation Yrotation
        JOINT ElbowLeft
        {
          OFFSET -9.867472 -17.045352 16.528684
          CHANNELS 3 Zrotation Xrotation Yrotation
          JOINT WristLeft
          {
            OFFSET -6.375326 -23.861831 9.075520
            CHANNELS 3 Zrotation Xrotation Yrotation
            JOINT HandLeft
            {
              OFFSET -1.800526 -17.028764 7.224989
              CHANNELS 3 Zrotation Xrotation Yrotation
              JOINT HandTipLeft
              {
                OFFSET -3.129136 -8.228099 2.394935
                CHANNELS 3 Zrotation Xrotation Yrotation
                End Site
                {
                  OFFSET 0 0 0
                }
              }
              JOINT ThumbLeft
              {
                OFFSET -3.676009 2.538680 1.560128
                CHANNELS 3 Zrotation Xrotation Yrotation
                End Site
                {
                  OFFSET 0 0 0
                }
              }
            }
          }
        }
      }
      JOINT ShoulderRight
      {
        OFFSET 5.101976 -3.242201 -12.190357
        CHANNELS 3 Zrotation Xrotation Yrotation
        JOINT ElbowRight
        {
          OFFSET 6.806817 -25.813968 -7.156695
          CHANNELS 3 Zrotation Xrotation Yrotation
          JOINT WristRight
          {
            OFFSET -1.963181 -19.126055 -4.493065
            CHANNELS 3 Zrotation Xrotation Yrotation
            JOINT HandRight
            {
              OFFSET -1.024224 -9.330150 -0.417419
              CHANNELS 3 Zrotation Xrotation Yrotation
              JOINT HandTipRight
              {
                OFFSET -0.933398 -6.658138 -2.161707
                CHANNELS 3 Zrotation Xrotation Yrotation
                End Site
                {
                  OFFSET 0 0 0
                }
              }
              JOINT ThumbRight
              {
                OFFSET -2.572144 -0.380952 -2.607001
                CHANNELS 3 Zrotation Xrotation Yrotation
                End Site
                {
                  OFFSET 0 0 0
                }
              }
            }
          }
        }
      }
    }
  }
  JOINT HipLeft
  {
    OFFSET -4.203250 -0.195659 2.552303
    CHANNELS 3 Zrotation Xrotation Yrotation
    JOINT KneeLeft
    {
      OFFSET 3.309072 -31.750715 6.386998
      CHANNELS 3 Zrotation Xrotation Yrotation
      JOINT AnkleLeft
      {
        OFFSET 14.236084 -38.111045 5.292484
        CHANNELS 3 Zrotation Xrotation Yrotation
        JOINT FootLeft
        {
          OFFSET -6.761920 -5.334754 -6.232445
          CHANNELS 3 Zrotation Xrotation Yrotation
          End Site
          {
            OFFSET 0 0 0
          }
        }
      }
    }
  }
  JOINT HipRight
  {
    OFFSET 2.418531 2.579910 -9.054923
    CHANNELS 3 Zrotation Xrotation Yrotation
    JOINT KneeRight
    {
      OFFSET 12.917193 -35.841096 -4.930592
      CHANNELS 3 Zrotation Xrotation Yrotation
      JOINT AnkleRight
      {
        OFFSET 13.171674 -37.986683 4.186663
        CHANNELS 3 Zrotation Xrotation Yrotation
        JOINT FootRight
        {
          OFFSET -2.197339 -7.655575 -3.525160
          CHANNELS 3 Zrotation Xrotation Yrotation
          End Site
          {
            OFFSET 0 0 0
          }
        }
      }
    }
  }
}
MOTION
Frames: 8
Frame Time: 0.033333
67.363937 79.208369 265.352155 0.132832 -0.318977 67.307887 0.243042 0.245604 -67.308038 -0.000000 0.000000 0.000000 0.312693 4.998659 1.580812 0.000000 0.000000 0.000000 0.883969 6.751103 -3.310947 1.579704 1.865414 1.969580 -13.035733 -20.333802 -4.495582 11.158386 47.800190 -13.498544 0.000000 0.000000 0.000000 0.000000 0.000000 0.000000 4.449301 4.355624 -0.249178 -3.567533 -8.751921 0.258640 -1.338194 5.505932 -0.273766 -0.361427 0.680178 0.124594 0.000000 0.000000 0.000000 0.000000 0.000000 0.000000 3.077500 1.945361 -67.115624 0.462525 -3.272017 -0.233411 16.089439 -13.743384 0.785976 0.000000 0.000000 0.000000 -2.281323 -0.244663 -68.147821 0.484952 2.525414 0.829114 1.865821 4.969606 -2.331482 0.000000 0.000000 0.000000
67.396015 79.372470 265.279743 0.265855 -0.232487 70.697735 0.131539 0.327760 -70.697572 -0.000000 0.000000 0.000000 3.338702 8.806002 1.724865 0.000000 0.000000 0.000000 1.979815 8.544840 -3.468681 0.529326 0.784062 1.767462 -11.310688 -24.176512 -3.239071 0.595068 48.022092 -10.374562 0.000000 0.000000 0.000000 0.000000 0.000000 0.000000 2.557774 2.726959 -0.050299 -1.967070 -6.884662 0.268374 -1.078270 5.860573 -0.388663 0.462141 0.845060 -0.168255 0.000000 0.000000 0.000000 0.000000 0.000000 0.000000 4.883254 2.612972 -70.388060 0.552886 -5.241974 -0.406226 23.014655 -19.581562 3.395815 0.000000 0.000000 0.000000 -4.105200 -0.434005 -72.150649 0.575077 4.266130 1.427727 2.390228 5.145387 -2.646658 0.000000 0.000000 0.000000
67.444743 79.550172 265.163209 0.423821 -0.057257 74.089286 -0.061125 0.423280 -74.088848 -0.000000 0.000000 0.000000 9.684522 14.751572 0.915184 0.000000 0.000000 0.000000 2.339707 9.201796 -3.578010 0.134644 0.600497 1.649217 -7.859201 -20.521293 -1.148563 -2.767329 46.518885 -12.229662 0.000000 0.000000 0.000000 0.000000 0.000000 0.000000 1.756091 1.824286 -0.033495 -1.252715 -6.088446 0.335056 -1.209072 6.544665 -0.452516 -0.149076 0.007485 0.181512 0.000000 0.000000 0.000000 0.000000 0.000000 0.000000 7.410730 2.920569 -73.549032 0.263064 -7.870187 -0.740084 38.699410 -30.329064 13.620022 0.000000 0.000000 0.000000 -6.525997 -0.505683 -76.330612 0.629061 6.500969 2.201383 2.777413 5.049083 -2.813677 0.000000 0.000000 0.000000
67.495008 79.726608 265.037287 0.573826 -0.048483 76.666868 -0.085159 0.569539 -76.666202 -0.000000 0.000000 0.000000 12.533246 17.816000 0.451916 0.000000 0.000000 0.000000 2.382591 8.885051 -3.317281 -0.421515 -0.098767 1.421930 -4.251114 -15.308857 0.572474 -5.942997 38.935217 -12.018981 0.000000 0.000000 0.000000 0.000000 0.000000 0.000000 0.459567 0.868263 0.097752 -0.523274 -5.146566 0.348162 -0.581982 7.069804 -0.667795 -0.989893 -0.306984 0.441499 0.000000 0.000000 0.000000 0.000000 0.000000 0.000000 10.657183 2.662547 -75.719642 -1.029132 -12.085188 -1.870971 33.354391 -25.497392 7.823530 0.000000 0.000000 0.000000 -8.907273 -0.400198 -79.725355 0.625264 8.853260 3.023813 6.048940 0.492159 -2.994021 0.000000 0.000000 0.000000
67.553831 79.899033 264.877746 0.726553 -0.048891 78.354414 -0.098783 0.721465 -78.353482 0.937873 -0.222742 0.077259 11.478540 18.591893 0.516927 0.000000 0.000000 0.000000 1.285489 8.097951 -2.874608 -1.049942 -1.094573 1.126784 -0.979250 -8.944964 1.560420 -10.303843 24.760273 -9.671257 0.000000 0.000000 0.000000 0.000000 0.000000 0.000000 -0.937579 0.223977 -0.073604 -1.039351 -4.193967 0.641707 0.411961 7.317664 -0.962705 -2.726985 0.718220 0.824752 0.000000 0.000000 0.000000 0.000000 0.000000 0.000000 13.890250 2.836177 -77.127145 -2.085736 -15.959061 -2.874578 24.310430 -17.420214 2.253229 0.000000 0.000000 0.000000 -11.012662 -0.238460 -82.129915 0.548687 10.942208 3.770023 5.458222 0.904064 -2.845857 0.000000 0.000000 0.000000
67.618954 80.057890 264.641213 0.802114 -0.206904 79.227416 -0.303014 -0.048313 -79.198424 0.169394 -0.079386 0.045629 8.878719 17.632646 1.254657 0.000000 0.000000 0.000000 -0.666803 4.735372 -2.277946 0.577305 0.568840 1.283960 0.580798 -0.470170 1.139592 -5.963338 -8.306889 -0.442852 0.000000 0.000000 0.000000 0.000000 0.000000 0.000000 -2.177365 -0.071495 0.101005 -0.564460 -3.413710 0.628911 0.139761 7.849460 -1.065014 -3.859402 1.415282 1.342090 0.000000 0.000000 0.000000 0.000000 0.000000 0.000000 16.716073 2.399673 -77.584752 -3.943814 -19.202037 -4.194552 25.800731 -18.024843 5.168543 0.000000 0.000000 0.000000 -12.518010 -0.132984 -83.571522 -0.195602 11.722115 4.144369 2.554438 6.591115 -2.235253 0.000000 0.000000 0.000000
67.702760 80.137448 264.330599 0.734411 -0.519143 79.310311 -0.394076 -0.041436 -79.285104 0.124011 -0.134292 0.032647 3.193471 14.322009 2.674596 0.000000 0.000000 0.000000 -0.820788 3.697008 -1.610575 -2.616765 -6.179965 1.234958 2.489610 15.151608 -1.323985 -0.814580 -33.412849 8.314350 0.000000 0.000000 0.000000 0.000000 0.000000 0.000000 -3.018024 -0.386699 0.198988 -0.609828 -1.975369 0.740050 0.625034 7.477412 -1.228161 -4.813281 1.923079 1.719541 0.000000 0.000000 0.000000 0.000000 0.000000 0.000000 18.970226 1.935696 -77.277080 -5.892631 -21.955830 -5.654926 20.835351 -9.968543 -1.995906 0.000000 0.000000 0.000000 -13.197341 -0.214129 -84.024077 -0.565084 12.317842 4.421416 -1.477521 14.911660 -1.844620 0.000000 0.000000 0.000000
67.801239 80.123908 263.931258 0.471624 -0.969195 78.562985 -0.436355 -0.033481 -78.551423 0.071229 -0.154802 0.009287 -5.228113 8.123889 4.003906 0.000000 0.000000 0.000000 0.805689 4.632484 -0.624921 -5.777566 -10.168716 0.152151 1.176497 27.037260 -3.228515 11.583412 -47.783774 19.594318 0.000000 0.000000 0.000000 0.000000 0.000000 0.000000 -3.962330 -0.869718 0.340318 -0.268882 0.215471 0.793503 0.907584 6.562530 -1.306576 -5.383251 1.027202 2.120058 0.000000 0.000000 0.000000 0.000000 0.000000 0.000000 20.406380 1.497917 -76.206092 -7.732429 -24.038094 -7.111279 18.531951 -3.769236 -6.079569 0.000000 0.000000 0.000000 -12.898819 -0.551454 -83.407037 -0.910905 12.105250 4.394491 -5.515905 24.653523 -1.195988 0.000000 0.000000 0.000000
